<mxfile host="app.diagrams.net" agent="Mozilla/5.0 (Macintosh; Intel Mac OS X 10_15_7) AppleWebKit/537.36 (KHTML, like Gecko) Chrome/128.0.0.0 Safari/537.36" version="24.7.10">
  <diagram name="Page-1" id="5fWynewT6h-FQUYjLDQA">
    <mxGraphModel dx="1306" dy="835" grid="1" gridSize="10" guides="1" tooltips="1" connect="1" arrows="1" fold="1" page="1" pageScale="1" pageWidth="827" pageHeight="1169" math="0" shadow="0">
      <root>
        <mxCell id="0" />
        <mxCell id="1" parent="0" />
        <mxCell id="frV8HjutTtlq1dtITY7i-4" style="rounded=0;orthogonalLoop=1;jettySize=auto;html=1;entryX=0.75;entryY=1;entryDx=0;entryDy=0;exitX=0.75;exitY=0;exitDx=0;exitDy=0;" edge="1" parent="1" source="frV8HjutTtlq1dtITY7i-1" target="frV8HjutTtlq1dtITY7i-2">
          <mxGeometry relative="1" as="geometry" />
        </mxCell>
        <mxCell id="frV8HjutTtlq1dtITY7i-7" style="edgeStyle=none;shape=connector;rounded=0;orthogonalLoop=1;jettySize=auto;html=1;strokeColor=default;align=center;verticalAlign=middle;fontFamily=Helvetica;fontSize=11;fontColor=default;labelBackgroundColor=default;endArrow=classic;" edge="1" parent="1" source="frV8HjutTtlq1dtITY7i-1" target="frV8HjutTtlq1dtITY7i-3">
          <mxGeometry relative="1" as="geometry" />
        </mxCell>
        <mxCell id="frV8HjutTtlq1dtITY7i-1" value="Client" style="rounded=1;whiteSpace=wrap;html=1;" vertex="1" parent="1">
          <mxGeometry x="30" y="270" width="120" height="60" as="geometry" />
        </mxCell>
        <mxCell id="frV8HjutTtlq1dtITY7i-6" style="edgeStyle=none;shape=connector;rounded=0;orthogonalLoop=1;jettySize=auto;html=1;entryX=0.25;entryY=0;entryDx=0;entryDy=0;strokeColor=default;align=center;verticalAlign=middle;fontFamily=Helvetica;fontSize=11;fontColor=default;labelBackgroundColor=default;endArrow=classic;" edge="1" parent="1" source="frV8HjutTtlq1dtITY7i-2" target="frV8HjutTtlq1dtITY7i-1">
          <mxGeometry relative="1" as="geometry" />
        </mxCell>
        <mxCell id="frV8HjutTtlq1dtITY7i-2" value="Resource Server" style="rounded=1;whiteSpace=wrap;html=1;" vertex="1" parent="1">
          <mxGeometry x="220" y="100" width="136" height="60" as="geometry" />
        </mxCell>
        <mxCell id="frV8HjutTtlq1dtITY7i-3" value="Authorization Sever" style="rounded=1;whiteSpace=wrap;html=1;" vertex="1" parent="1">
          <mxGeometry x="264" y="340" width="136" height="60" as="geometry" />
        </mxCell>
      </root>
    </mxGraphModel>
  </diagram>
</mxfile>
